{
  "source": "C:\\Users\\Peter\\Desktop\\stuff\\MIUN\\quantitative_research\\video_compression\\videos\\BVI-HD\\BVI-HD_CDVL_videos\\ORIG\\ParkPlay_1920x1080_50fps.mp4",
  "output": "C:\\Users\\Peter\\Desktop\\stuff\\MIUN\\quantitative_research\\video_compression\\compressed_videos\\BVI-HD\\vp9\\1\\ParkPlay_1920x1080_50fps_vp9.webm",
  "codec": "vp9",
  "ok": "Input #0, mov,mp4,m4a,3gp,3g2,mj2, from 'C:\\Users\\Peter\\Desktop\\stuff\\MIUN\\quantitative_research\\video_compression\\videos\\BVI-HD\\BVI-HD_CDVL_videos\\ORIG\\ParkPlay_1920x1080_50fps.mp4':\n  Metadata:\n    major_brand     : isom\n    minor_version   : 512\n    compatible_brands: isomiso2avc1mp41\n    encoder         : Lavf54.28.101\n  Duration: 00:00:05.00, start: 0.000000, bitrate: 620563 kb/s\n  Stream #0:0[0x1](und): Video: h264 (High 4:4:4 Predictive) (avc1 / 0x31637661), yuv420p(progressive), 1920x1080, 620558 kb/s, 50 fps, 50 tbr, 50 tbn (default)\n    Metadata:\n      handler_name    : VideoHandler\n      vendor_id       : [0][0][0][0]\n[out#0/webm @ 0000021df2f5f040] Codec AVOption b:a (set bitrate (in bits/s)) has not been used for any stream. The most likely reason is either wrong type (e.g. a video option with no video streams) or that it is a private option of some decoder which was not actually used for any stream.\nStream mapping:\n  Stream #0:0 -> #0:0 (h264 (native) -> vp9 (libvpx-vp9))\nPress [q] to stop, [?] for help\n[libvpx-vp9 @ 0000021df2d60a80] v1.15.2-100-g40561f514\nOutput #0, webm, to 'C:\\Users\\Peter\\Desktop\\stuff\\MIUN\\quantitative_research\\video_compression\\compressed_videos\\BVI-HD\\vp9\\1\\ParkPlay_1920x1080_50fps_vp9.webm':\n  Metadata:\n    major_brand     : isom\n    minor_version   : 512\n    compatible_brands: isomiso2avc1mp41\n    encoder         : Lavf62.3.100\n  Stream #0:0(und): Video: vp9, yuv420p(tv, progressive), 1920x1080, q=2-31, 1000 kb/s, 50 fps, 1k tbn (default)\n    Metadata:\n      encoder         : Lavc62.11.100 libvpx-vp9\n      handler_name    : VideoHandler\n      vendor_id       : [0][0][0][0]\n    Side data:\n      cpb: bitrate max/min/avg: 0/0/0 buffer size: 1000000 vbv_delay: N/A\nframe=    0 fps=0.0 q=0.0 size=       0KiB time=N/A bitrate=N/A speed=N/A elapsed=0:00:00.52    \nframe=    2 fps=1.8 q=63.0 size=       1KiB time=00:00:00.04 bitrate= 126.8kbits/s speed=0.0365x elapsed=0:00:01.09    \nframe=    9 fps=5.5 q=63.0 size=       1KiB time=00:00:00.18 bitrate=  28.2kbits/s speed=0.11x elapsed=0:00:01.63    \nframe=   15 fps=7.0 q=63.0 size=       1KiB time=00:00:00.30 bitrate=  16.9kbits/s speed=0.14x elapsed=0:00:02.13    \nframe=   21 fps=7.9 q=63.0 size=       1KiB time=00:00:00.42 bitrate=  12.1kbits/s speed=0.157x elapsed=0:00:02.66    \nframe=   26 fps=8.1 q=63.0 size=       1KiB time=00:00:00.52 bitrate=   9.8kbits/s speed=0.163x elapsed=0:00:03.19    \nframe=   32 fps=8.6 q=63.0 size=       1KiB time=00:00:00.64 bitrate=   7.9kbits/s speed=0.173x elapsed=0:00:03.70    \nframe=   38 fps=9.0 q=63.0 size=       1KiB time=00:00:00.76 bitrate=   6.7kbits/s speed=0.18x elapsed=0:00:04.22    \nframe=   43 fps=9.1 q=63.0 size=       1KiB time=00:00:00.86 bitrate=   5.9kbits/s speed=0.181x elapsed=0:00:04.75    \nframe=   48 fps=9.1 q=63.0 size=       1KiB time=00:00:00.96 bitrate=   5.3kbits/s speed=0.182x elapsed=0:00:05.28    \nframe=   52 fps=8.9 q=56.0 size=       1KiB time=00:00:01.04 bitrate=   4.9kbits/s speed=0.179x elapsed=0:00:05.82    \nframe=   57 fps=8.9 q=63.0 size=       1KiB time=00:00:01.14 bitrate=   4.4kbits/s speed=0.179x elapsed=0:00:06.37    \nframe=   61 fps=8.8 q=63.0 size=       1KiB time=00:00:01.22 bitrate=   4.2kbits/s speed=0.176x elapsed=0:00:06.94    \nframe=   63 fps=8.4 q=63.0 size=       1KiB time=00:00:01.26 bitrate=   4.0kbits/s speed=0.168x elapsed=0:00:07.49    \nframe=   67 fps=8.3 q=63.0 size=       1KiB time=00:00:01.32 bitrate=   3.8kbits/s speed=0.163x elapsed=0:00:08.11    \nframe=   69 fps=7.9 q=63.0 size=       1KiB time=00:00:01.38 bitrate=   3.7kbits/s speed=0.158x elapsed=0:00:08.75    \nframe=   72 fps=7.6 q=63.0 size=       1KiB time=00:00:01.42 bitrate=   3.6kbits/s speed=0.151x elapsed=0:00:09.42    \nframe=   74 fps=7.4 q=63.0 size=       1KiB time=00:00:01.48 bitrate=   3.4kbits/s speed=0.148x elapsed=0:00:10.01    \nframe=   76 fps=7.2 q=56.0 size=       1KiB time=00:00:01.52 bitrate=   3.3kbits/s speed=0.144x elapsed=0:00:10.53    \nframe=   81 fps=7.3 q=63.0 size=       1KiB time=00:00:01.62 bitrate=   3.1kbits/s speed=0.147x elapsed=0:00:11.05    \nframe=   85 fps=7.4 q=63.0 size=       1KiB time=00:00:01.70 bitrate=   3.0kbits/s speed=0.147x elapsed=0:00:11.56    \nframe=   90 fps=7.4 q=62.0 size=       1KiB time=00:00:01.80 bitrate=   2.8kbits/s speed=0.149x elapsed=0:00:12.09    \nframe=   93 fps=7.4 q=63.0 size=       1KiB time=00:00:01.86 bitrate=   2.7kbits/s speed=0.147x elapsed=0:00:12.62    \nframe=   97 fps=7.4 q=63.0 size=       1KiB time=00:00:01.94 bitrate=   2.6kbits/s speed=0.147x elapsed=0:00:13.15    \nframe=   99 fps=7.2 q=63.0 size=       1KiB time=00:00:01.98 bitrate=   2.6kbits/s speed=0.144x elapsed=0:00:13.71    \nframe=  102 fps=7.2 q=62.0 size=       1KiB time=00:00:02.04 bitrate=   2.5kbits/s speed=0.143x elapsed=0:00:14.22    \nframe=  105 fps=7.1 q=63.0 size=       1KiB time=00:00:02.10 bitrate=   2.4kbits/s speed=0.142x elapsed=0:00:14.75    \nframe=  108 fps=7.1 q=62.0 size=       1KiB time=00:00:02.16 bitrate=   2.3kbits/s speed=0.141x elapsed=0:00:15.31    \nframe=  111 fps=7.0 q=63.0 size=       1KiB time=00:00:02.22 bitrate=   2.3kbits/s speed=0.14x elapsed=0:00:15.91    \nframe=  114 fps=6.9 q=62.0 size=       1KiB time=00:00:02.26 bitrate=   2.2kbits/s speed=0.137x elapsed=0:00:16.51    \nframe=  117 fps=6.8 q=63.0 size=       1KiB time=00:00:02.34 bitrate=   2.2kbits/s speed=0.137x elapsed=0:00:17.08    \nframe=  119 fps=6.7 q=63.0 size=       1KiB time=00:00:02.38 bitrate=   2.1kbits/s speed=0.135x elapsed=0:00:17.65    \nframe=  123 fps=6.8 q=63.0 size=       1KiB time=00:00:02.46 bitrate=   2.1kbits/s speed=0.135x elapsed=0:00:18.21    \nframe=  125 fps=6.7 q=63.0 size=       1KiB time=00:00:02.50 bitrate=   2.0kbits/s speed=0.133x elapsed=0:00:18.78    \nframe=  128 fps=6.6 q=62.0 size=       1KiB time=00:00:02.56 bitrate=   2.0kbits/s speed=0.132x elapsed=0:00:19.35    \nframe=  131 fps=6.6 q=61.0 size=     256KiB time=00:00:02.62 bitrate= 800.4kbits/s speed=0.132x elapsed=0:00:19.92    \nframe=  134 fps=6.5 q=62.0 size=     256KiB time=00:00:02.68 bitrate= 782.5kbits/s speed=0.131x elapsed=0:00:20.47    \nframe=  136 fps=6.4 q=62.0 size=     256KiB time=00:00:02.72 bitrate= 771.0kbits/s speed=0.129x elapsed=0:00:21.09    \nframe=  139 fps=6.4 q=62.0 size=     256KiB time=00:00:02.78 bitrate= 754.4kbits/s speed=0.128x elapsed=0:00:21.69    \nframe=  142 fps=6.4 q=62.0 size=     256KiB time=00:00:02.84 bitrate= 738.4kbits/s speed=0.128x elapsed=0:00:22.23    \nframe=  146 fps=6.4 q=63.0 size=     256KiB time=00:00:02.92 bitrate= 718.2kbits/s speed=0.128x elapsed=0:00:22.77    \nframe=  147 fps=6.3 q=56.0 size=     256KiB time=00:00:02.94 bitrate= 713.3kbits/s speed=0.126x elapsed=0:00:23.28    \nframe=  150 fps=6.3 q=63.0 size=     256KiB time=00:00:03.00 bitrate= 699.1kbits/s speed=0.126x elapsed=0:00:23.85    \nframe=  152 fps=6.2 q=63.0 size=     256KiB time=00:00:03.04 bitrate= 689.9kbits/s speed=0.124x elapsed=0:00:24.41    \nframe=  155 fps=6.2 q=62.0 size=     256KiB time=00:00:03.10 bitrate= 676.5kbits/s speed=0.124x elapsed=0:00:24.99    \nframe=  157 fps=6.1 q=62.0 size=     256KiB time=00:00:03.14 bitrate= 667.9kbits/s speed=0.123x elapsed=0:00:25.59    \nframe=  159 fps=6.1 q=55.0 size=     256KiB time=00:00:03.18 bitrate= 659.5kbits/s speed=0.122x elapsed=0:00:26.13    \nframe=  162 fps=6.1 q=62.0 size=     256KiB time=00:00:03.24 bitrate= 647.3kbits/s speed=0.121x elapsed=0:00:26.68    \nframe=  164 fps=6.0 q=62.0 size=     256KiB time=00:00:03.28 bitrate= 639.4kbits/s speed=0.12x elapsed=0:00:27.23    \nframe=  166 fps=6.0 q=62.0 size=     256KiB time=00:00:03.32 bitrate= 631.7kbits/s speed=0.119x elapsed=0:00:27.80    \nframe=  169 fps=6.0 q=61.0 size=     256KiB time=00:00:03.38 bitrate= 620.5kbits/s speed=0.119x elapsed=0:00:28.35    \nframe=  171 fps=5.9 q=56.0 size=     256KiB time=00:00:03.40 bitrate= 616.8kbits/s speed=0.118x elapsed=0:00:28.88    \nframe=  174 fps=5.9 q=62.0 size=     256KiB time=00:00:03.48 bitrate= 602.6kbits/s speed=0.118x elapsed=0:00:29.44    \nframe=  176 fps=5.9 q=63.0 size=     256KiB time=00:00:03.52 bitrate= 595.8kbits/s speed=0.117x elapsed=0:00:30.03    \nframe=  178 fps=5.8 q=61.0 size=     256KiB time=00:00:03.56 bitrate= 589.1kbits/s speed=0.116x elapsed=0:00:30.59    \nframe=  182 fps=5.8 q=63.0 size=     256KiB time=00:00:03.64 bitrate= 576.1kbits/s speed=0.117x elapsed=0:00:31.14    \nframe=  184 fps=5.8 q=62.0 size=     256KiB time=00:00:03.68 bitrate= 569.9kbits/s speed=0.116x elapsed=0:00:31.71    \nframe=  186 fps=5.8 q=63.0 size=     256KiB time=00:00:03.72 bitrate= 563.8kbits/s speed=0.115x elapsed=0:00:32.25    \nframe=  188 fps=5.7 q=63.0 size=     256KiB time=00:00:03.76 bitrate= 557.8kbits/s speed=0.115x elapsed=0:00:32.82    \nframe=  191 fps=5.7 q=61.0 size=     256KiB time=00:00:03.82 bitrate= 549.0kbits/s speed=0.114x elapsed=0:00:33.37    \nframe=  194 fps=5.7 q=63.0 size=     256KiB time=00:00:03.88 bitrate= 540.5kbits/s speed=0.114x elapsed=0:00:33.91    \nframe=  196 fps=5.7 q=61.0 size=     256KiB time=00:00:03.92 bitrate= 535.0kbits/s speed=0.114x elapsed=0:00:34.47    \nframe=  199 fps=5.7 q=62.0 size=     256KiB time=00:00:03.98 bitrate= 526.9kbits/s speed=0.114x elapsed=0:00:35.05    \nframe=  200 fps=5.6 q=62.0 size=     256KiB time=00:00:04.00 bitrate= 524.3kbits/s speed=0.112x elapsed=0:00:35.58    \nframe=  204 fps=5.6 q=62.0 size=     256KiB time=00:00:04.08 bitrate= 514.0kbits/s speed=0.113x elapsed=0:00:36.11    \nframe=  206 fps=5.6 q=63.0 size=     256KiB time=00:00:04.12 bitrate= 509.0kbits/s speed=0.112x elapsed=0:00:36.63    \nframe=  209 fps=5.6 q=61.0 size=     256KiB time=00:00:04.18 bitrate= 501.7kbits/s speed=0.112x elapsed=0:00:37.15    \nframe=  212 fps=5.6 q=63.0 size=     256KiB time=00:00:04.24 bitrate= 494.6kbits/s speed=0.113x elapsed=0:00:37.68    \nframe=  216 fps=5.7 q=62.0 size=     256KiB time=00:00:04.32 bitrate= 485.5kbits/s speed=0.113x elapsed=0:00:38.21    \nframe=  218 fps=5.6 q=63.0 size=     256KiB time=00:00:04.36 bitrate= 481.0kbits/s speed=0.112x elapsed=0:00:38.82    \nframe=  221 fps=5.6 q=61.0 size=     256KiB time=00:00:04.42 bitrate= 474.5kbits/s speed=0.112x elapsed=0:00:39.34    \nframe=  224 fps=5.6 q=63.0 size=     256KiB time=00:00:04.48 bitrate= 468.1kbits/s speed=0.112x elapsed=0:00:39.87    \nframe=  226 fps=5.6 q=62.0 size=     256KiB time=00:00:04.52 bitrate= 464.0kbits/s speed=0.112x elapsed=0:00:40.44    \nframe=  226 fps=5.5 q=62.0 size=     256KiB time=00:00:04.52 bitrate= 464.0kbits/s speed=0.11x elapsed=0:00:41.01    \nframe=  226 fps=5.4 q=62.0 size=     256KiB time=00:00:04.52 bitrate= 464.0kbits/s speed=0.109x elapsed=0:00:41.56    \nframe=  226 fps=5.4 q=62.0 size=     256KiB time=00:00:04.52 bitrate= 464.0kbits/s speed=0.107x elapsed=0:00:42.08    \nframe=  226 fps=5.3 q=62.0 size=     256KiB time=00:00:04.52 bitrate= 464.0kbits/s speed=0.106x elapsed=0:00:42.60    \nframe=  226 fps=5.2 q=62.0 size=     256KiB time=00:00:04.52 bitrate= 464.0kbits/s speed=0.105x elapsed=0:00:43.13    \nframe=  226 fps=5.2 q=62.0 size=     256KiB time=00:00:04.52 bitrate= 464.0kbits/s speed=0.104x elapsed=0:00:43.66    \n[out#0/webm @ 0000021df2f5f040] video:735KiB audio:0KiB subtitle:0KiB other streams:0KiB global headers:0KiB muxing overhead: 0.325324%\nframe=  250 fps=5.7 q=61.0 Lsize=     737KiB time=00:00:05.00 bitrate=1207.9kbits/s speed=0.113x elapsed=0:00:44.17    \n",
  "seconds": 44.65069127082825,
  "probe_out": {}
}